<svg fill="none" height="29" viewBox="0 0 185 29" width="185" xmlns="http://www.w3.org/2000/svg"><path d="m7.61605 8.45698c1.38578-.76315 2.97995-1.20205 4.67655-1.20205 1.4288 0 2.6195.23255 3.6051.66817l1.7495-2.03727c-1.6206-.78281-3.433-1.23153-5.3546-1.23153-2.47716 0-4.77908.73368-6.71057 1.98814z" fill="#6cbe45"/><path d="m20.0922 13.6026c.3935.999.6118 2.0864.6118 3.2229 0 4.936-4.0548 8.9516-9.039 8.9516-4.98415 0-9.03896-4.0156-9.03896-8.9516 0-1.4935.35719-2.9019.97567-4.1629l-1.58092-2.509c-1.273329 1.9194-2.02079 4.2089-2.02079 6.6719 0 6.7113 5.51335 12.1713 12.2901 12.1713 6.7768 0 12.2934-5.46 12.2934-12.1713 0-2.5842-.8235-4.9785-2.2159-6.95026z" fill="#6cbe45"/><g fill="#212424"><path d="m2.84429 7.74948 9.09191 14.43452c.1356.2293.473.2293.6086 0l13.2227-21.656678c.215-.363565-.2844-.720579-.5655-.406145l-12.7333 14.830823c-.1257.1408-.3407.1572-.4862.036l-8.61234-7.68397c-.30427-.24565-.72431.11137-.52587.44545z"/><path d="m39.4435 9.19393c.6714 0 1.3693.06223 2.1002.18669.7309.12447 1.3395.29151 1.8323.49786l-.3341 1.57212c-.506-.1768-1.0517-.3209-1.6305-.4323-.5821-.1114-1.1543-.167-1.7198-.167-1.8621 0-3.314.5175-4.3558 1.5492-1.0451 1.035-1.5644 2.5089-1.5644 4.4283 0 1.9193.5226 3.3933 1.5644 4.425s2.4937 1.5492 4.3558 1.5492c.5655 0 1.1377-.0556 1.7198-.167s1.1245-.2555 1.6305-.4324l.3341 1.5722c-.4928.2064-1.1014.3734-1.8323.4979-.7309.1244-1.4288.1867-2.1002.1867-1.2204 0-2.3118-.19-3.2743-.5765-.9624-.3832-1.7694-.9138-2.4242-1.5918-.6549-.678-1.1576-1.4838-1.5082-2.414s-.5259-1.9488-.5259-3.0526.1753-2.1257.5259-3.0559.8533-1.7327 1.5082-2.4139c.6548-.678 1.4618-1.2086 2.4242-1.59186.9625-.38322 2.0506-.57646 3.2743-.57646z"/><path d="m51.9354 24.4604c-1.1609 0-2.1961-.2064-3.1056-.6191s-1.6669-.9662-2.2788-1.6606c-.6118-.6943-1.0781-1.5034-1.3957-2.4336-.3208-.9302-.4795-1.9029-.4795-2.9216 0-1.0186.1587-1.9914.4795-2.9216.3209-.9302.7872-1.7392 1.3957-2.4336.6119-.6911 1.3693-1.2479 2.2788-1.66058.9095-.4127 1.9447-.61905 3.1056-.61905s2.1961.20635 3.1056.61905c.9095.41268 1.6669.96618 2.2788 1.66058.6118.6944 1.0749 1.5034 1.3957 2.4336s.4796 1.903.4796 2.9216c0 1.0187-.1588 1.9914-.4796 2.9216s-.7872 1.7393-1.3957 2.4336c-.6119.6944-1.3693 1.2479-2.2788 1.6606s-1.9447.6191-3.1056.6191zm0-1.6344c.85 0 1.6008-.154 2.2556-.4651.6549-.3112 1.2006-.737 1.6306-1.284.4332-.5469.7606-1.1824.9822-1.9128.2249-.7304.3341-1.5099.3341-2.3353s-.1125-1.6049-.3341-2.3353c-.2249-.7304-.5523-1.3626-.9822-1.903-.4333-.5372-.9757-.9662-1.6306-1.2839-.6548-.3178-1.4089-.475-2.2556-.475s-1.6007.1605-2.2556.475c-.6548.3177-1.2006.7467-1.6305 1.2839-.4333.5372-.7607 1.1726-.9823 1.903-.2249.7304-.334 1.5099-.334 2.3353s.1124 1.6049.334 2.3353c.2249.7304.5523 1.3691.9823 1.9128.4332.547.9757.9728 1.6305 1.284.6549.3111 1.4089.4651 2.2556.4651z"/><path d="m71.1737 9.45923h2.0571v9.51487c0 .7665-.1256 1.487-.3803 2.1585-.2547.6714-.6251 1.2545-1.1179 1.749-.4928.4946-1.098.8811-1.8223 1.1628-.7244.2817-1.5611.4192-2.5136.4192-.9526 0-1.7926-.1408-2.5136-.4192-.7243-.2784-1.3296-.6682-1.8224-1.1628-.4928-.4945-.8632-1.0776-1.1179-1.749-.2546-.6715-.3803-1.3888-.3803-2.1585v-9.51487h2.0572v9.60337c0 1.107.3175 2.0045.9492 2.6989.6317.6943 1.5743 1.0415 2.8278 1.0415s2.1927-.3472 2.8278-1.0415c.6317-.6944.9492-1.5951.9492-2.6989z"/><path d="m78.44 24.1951h-2.0572v-14.73587h3.8663c.8037 0 1.5545.08843 2.2457.2653s1.2998.43887 1.8223.78607c.5226.3472.9294.7828 1.2304 1.3069.2976.524.4465 1.1234.4465 1.8047 0 1.0186-.3308 1.903-.9955 2.6563-.6615.7534-1.5909 1.2971-2.7815 1.6377l5.2521 6.2854h-2.5236l-4.8485-5.9317c-.0728 0-.1852.0033-.3341.0099-.1488.0065-.3076.0098-.4696.0098h-.85v5.9087zm5.4968-10.5336c0-.4585-.0992-.8516-.301-1.1824-.2017-.3308-.4729-.5994-.8136-.7959-.3439-.1998-.7375-.3472-1.184-.4422s-.9161-.1441-1.4089-.1441h-1.786v5.555h1.0286c.6251 0 1.2105-.0589 1.7529-.1769.5424-.1179 1.0186-.298 1.4188-.5404.4035-.2456.7177-.5535.9492-.9302.2316-.3767.3473-.8221.3473-1.3396z"/><path d="m98.1275 9.45923v1.66057h-4.3789v13.0785h-2.0572v-13.0785h-4.3789v-1.66057z"/><path d="m111.318 13.9496c0 1.0481-.301 1.9292-.896 2.6432-.595.7141-1.452 1.2643-2.57 1.6475l5.027 5.9546h-3.889l-4.313-5.3781h-1.005v5.3781h-3.129v-14.73579h4.445c.923 0 1.773.09171 2.547.27513s1.442.46506 2.001.84176.992.845 1.306 1.4051.47 1.2185.47 1.9718zm-3.132.0655c0-.7533-.297-1.297-.893-1.6377-.595-.3406-1.372-.5076-2.325-.5076h-1.296v4.6018h.939c1.072 0 1.935-.2063 2.593-.619.655-.4127.982-1.0252.982-1.8375z"/><path d="m114.223 9.45911h8.939v2.45649h-5.811v3.5636h5.544v2.4565h-5.544v3.806h5.878v2.4565h-9.006z"/><path d="m135.202 19.9927c0 .6485-.132 1.2479-.403 1.7916-.268.547-.645 1.0187-1.128 1.415-.483.3996-1.068.7074-1.753.9302-.685.2194-1.445.3308-2.279.3308-.79 0-1.584-.0852-2.381-.2555s-1.531-.416-2.199-.7402l.648-2.3681c.536.2522 1.134.4651 1.799.642.662.1768 1.343.2653 2.044.2653.744 0 1.353-.1507 1.822-.452.47-.3014.705-.7403.705-1.3167 0-.5306-.225-.9663-.672-1.3069-.446-.3374-1.131-.6911-2.057-1.0612-.655-.2653-1.237-.5437-1.743-.832-.506-.2882-.932-.6092-1.273-.9629-.344-.3537-.609-.7501-.794-1.1824-.185-.4356-.281-.9269-.281-1.4706 0-1.356.466-2.4009 1.396-3.1313.929-.73039 2.179-1.09395 3.744-1.09395.803 0 1.541.07533 2.212.22272.672.14739 1.32.38322 1.945.70743l-.582 2.3681c-.523-.2522-1.068-.4552-1.644-.6092-.572-.1539-1.157-.2325-1.753-.2325-.655 0-1.184.1212-1.587.3635-.404.2424-.602.6223-.602 1.1399 0 .2358.033.4421.099.619s.189.3439.367.4978c.179.1573.414.3112.705.4652.291.1539.658.3275 1.104.5207.596.2522 1.164.5175 1.71.7959.543.2817 1.025.606 1.442.9728.417.3701.751.7959 1.006 1.284.254.488.38 1.0481.38 1.6835z"/><path d="m137.281 9.45935h8.94v2.45655h-5.811v3.5636h5.543v2.4565h-5.543v3.8059h5.877v2.4566h-9.006z"/><path d="m159.561 13.9497c0 1.0482-.298 1.9292-.893 2.6433-.595.714-1.452 1.2642-2.57 1.6475l5.027 5.9546h-3.889l-4.313-5.3782h-1.005v5.3782h-3.129v-14.73587h4.448c.923 0 1.773.09171 2.547.27513s1.442.46514 2.001.84174c.559.3767.996.8451 1.306 1.4052.315.56.47 1.2184.47 1.9717zm-3.129.0655c0-.7533-.297-1.297-.893-1.6376-.595-.3407-1.369-.5077-2.325-.5077h-1.296v4.6019h.939c1.072 0 1.935-.2064 2.593-.6191.655-.4127.982-1.0252.982-1.8375z"/><path d="m175.992 9.45935h8.94v2.45655h-5.811v3.5636h5.543v2.4565h-5.543v3.8059h5.877v2.4566h-9.006z"/><path d="m165.711 24.1949-5.652-14.73909h3.337l3.026 8.56829c.519 1.4379.833 2.6039.943 3.4916h.109c.082-.6387.393-1.8048.942-3.4916l3.026-8.56829h3.364l-5.679 14.73909z"/></g></svg>